<svg width="22" height="21" viewBox="0 0 22 21" fill="none" xmlns="http://www.w3.org/2000/svg">
<path d="M11.6562 6.125C11.6562 5.76256 11.3624 5.46875 11 5.46875C10.6376 5.46875 10.3438 5.76256 10.3438 6.125V10.5C10.3438 10.7263 10.4603 10.9366 10.6522 11.0565L13.2772 12.6971C13.5845 12.8892 13.9894 12.7958 14.1815 12.4884C14.3736 12.1811 14.2802 11.7762 13.9728 11.5841L11.6562 10.1363V6.125Z" fill="white"/>
<path fill-rule="evenodd" clip-rule="evenodd" d="M11 2.84375C6.77157 2.84375 3.34375 6.27157 3.34375 10.5C3.34375 14.7284 6.77157 18.1562 11 18.1562C15.2284 18.1562 18.6562 14.7284 18.6562 10.5C18.6562 6.27157 15.2284 2.84375 11 2.84375ZM4.65625 10.5C4.65625 6.99644 7.49644 4.15625 11 4.15625C14.5036 4.15625 17.3438 6.99644 17.3438 10.5C17.3438 14.0036 14.5036 16.8438 11 16.8438C7.49644 16.8438 4.65625 14.0036 4.65625 10.5Z" fill="white"/>
</svg>
